<?xml version="1.0" standalone="no"?>
<svg xmlns:xlink="http://www.w3.org/1999/xlink" id="wave" style="transform:rotate(0deg); transition: 0.3s" viewBox="0 0 1440 490" version="1.1" xmlns="http://www.w3.org/2000/svg"><defs><linearGradient id="sw-gradient-0" x1="0" x2="0" y1="1" y2="0"><stop stop-color="rgba(255, 255, 255, 1)" offset="0%"/><stop stop-color="rgba(255, 255, 255, 1)" offset="100%"/></linearGradient></defs><path style="transform:translate(0, 0px); opacity:1" fill="url(#sw-gradient-0)" d="M0,245L12,228.7C24,212,48,180,72,212.3C96,245,120,343,144,375.7C168,408,192,376,216,326.7C240,278,264,212,288,212.3C312,212,336,278,360,285.8C384,294,408,245,432,261.3C456,278,480,359,504,351.2C528,343,552,245,576,220.5C600,196,624,245,648,253.2C672,261,696,229,720,196C744,163,768,131,792,114.3C816,98,840,98,864,138.8C888,180,912,261,936,277.7C960,294,984,245,1008,261.3C1032,278,1056,359,1080,383.8C1104,408,1128,376,1152,334.8C1176,294,1200,245,1224,253.2C1248,261,1272,327,1296,326.7C1320,327,1344,261,1368,220.5C1392,180,1416,163,1440,196C1464,229,1488,310,1512,302.2C1536,294,1560,196,1584,171.5C1608,147,1632,196,1656,196C1680,196,1704,147,1716,122.5L1728,98L1728,490L1716,490C1704,490,1680,490,1656,490C1632,490,1608,490,1584,490C1560,490,1536,490,1512,490C1488,490,1464,490,1440,490C1416,490,1392,490,1368,490C1344,490,1320,490,1296,490C1272,490,1248,490,1224,490C1200,490,1176,490,1152,490C1128,490,1104,490,1080,490C1056,490,1032,490,1008,490C984,490,960,490,936,490C912,490,888,490,864,490C840,490,816,490,792,490C768,490,744,490,720,490C696,490,672,490,648,490C624,490,600,490,576,490C552,490,528,490,504,490C480,490,456,490,432,490C408,490,384,490,360,490C336,490,312,490,288,490C264,490,240,490,216,490C192,490,168,490,144,490C120,490,96,490,72,490C48,490,24,490,12,490L0,490Z"/></svg>